<svg width="85" height="75" viewBox="0 0 85 75" fill="none" xmlns="http://www.w3.org/2000/svg">
<path d="M65.3273 52.0989C63.6021 52.9535 61.9322 53.9154 60.3273 54.9789C59.7573 55.3889 59.2373 55.8389 58.6873 56.2589C56.7124 57.683 54.9658 59.3993 53.5073 61.3489C52.9152 62.2293 52.4348 63.1799 52.0773 64.1789C51.8073 64.8089 51.7073 65.4789 51.4373 66.1089C51.3273 66.4389 51.2073 66.7589 51.0873 67.1089C50.9673 67.4589 50.8773 67.7789 50.7473 68.1089C50.6173 68.4389 50.2973 68.4489 49.9673 68.0289C49.5052 67.408 49.2593 66.6528 49.2673 65.8789C49.2915 65.0751 49.4609 64.2824 49.7673 63.5389L50.2073 62.4289L50.7473 61.3589C51.5139 59.9802 52.4811 58.7232 53.6173 57.6289C54.9473 56.3289 56.2273 54.9289 57.6873 53.7589C59.2872 52.5088 60.9565 51.3503 62.6873 50.2889C63.6873 49.6289 64.8073 49.0189 65.8773 48.3989C67.4773 47.3989 69.1573 46.6489 70.7073 45.6789C71.8558 44.9125 72.9547 44.0741 73.9973 43.1689L74.6173 42.5889C75.4073 41.9189 75.6173 41.8789 76.4373 42.1889C76.6173 42.2589 76.8073 42.3089 76.9773 42.3889C77.263 42.505 77.4519 42.7805 77.4573 43.0889C77.4626 43.5194 77.3216 43.939 77.0573 44.2789C76.2081 45.4191 75.1975 46.4297 74.0573 47.2789C72.9485 48.0544 71.8003 48.772 70.6173 49.4289C68.9073 50.4289 67.1273 51.2689 65.4173 52.2089L65.3273 52.0989Z" fill="#231F20"/>
<path d="M74.2274 17.569C74.0474 17.319 73.8774 17.069 73.6874 16.829L73.0774 16.159L71.8074 14.849L70.3974 13.629L69.6974 13.009L68.9374 12.459L67.3974 11.359C66.8674 11.019 66.3074 10.719 65.7574 10.359C64.6559 9.70909 63.5135 9.13121 62.3374 8.62901C57.5031 6.63761 52.3679 5.47468 47.1474 5.18901C43.3189 5.02178 39.4839 5.29355 35.7174 5.99901C29.019 7.17301 22.6274 9.69018 16.9274 13.399C14.1387 15.2268 11.6664 17.4965 9.60737 20.119C7.59952 22.6963 6.22897 25.7116 5.60737 28.919C5.08805 31.7009 5.40112 34.5742 6.50737 37.179C7.6278 39.9006 9.26458 42.3796 11.3274 44.479C15.3773 48.6323 20.3884 51.7234 25.9174 53.479C26.8374 53.749 27.7674 54.039 28.7074 54.299C29.6562 54.5521 30.6174 54.7557 31.5874 54.909C34.0074 55.249 33.7574 55.519 31.5874 56.089C30.0571 56.4473 28.4973 56.6648 26.9274 56.739C24.6624 56.7553 22.412 56.3763 20.2774 55.619C18.1694 54.8857 16.134 53.9584 14.1974 52.849C13.1974 52.299 12.2774 51.689 11.3574 51.049C10.445 50.3635 9.57035 49.6291 8.73737 48.849C5.20189 45.7452 2.51715 41.7904 0.937366 37.359C0.137801 34.9793 -0.155139 32.4587 0.077366 29.959C0.220105 28.7464 0.454102 27.5464 0.777366 26.369L0.987366 25.509L1.29737 24.669L1.92737 23.009C3.80119 18.7673 6.68104 15.0465 10.3174 12.169C14.4825 8.81737 19.119 6.09813 24.0774 4.09901C26.5494 3.09722 29.0809 2.24894 31.6574 1.55901L33.6574 1.08901L35.6574 0.729011C36.9674 0.459011 38.3074 0.359011 39.6574 0.199011C45.4847 -0.295543 51.3537 0.133067 57.0474 1.46901C59.8965 2.15485 62.6753 3.10565 65.3474 4.30901C68.0541 5.49673 70.62 6.98257 72.9974 8.73901C75.9195 10.9636 78.4421 13.6688 80.4574 16.739C82.531 19.8369 83.8967 23.3536 84.4574 27.039C84.9236 29.8708 84.7976 32.7684 84.0874 35.549C83.3068 38.3479 81.9399 40.9488 80.0774 43.179C76.4574 47.569 71.7374 50.369 67.4274 53.109C64.2748 54.9925 61.3834 57.2821 58.8274 59.919C57.668 61.1633 56.7038 62.576 55.9674 64.109C55.8174 64.489 55.6174 64.849 55.4974 65.239L55.3774 65.619C55.3174 65.789 55.2574 65.949 55.2074 66.139C55.0827 66.5245 55.0088 66.9245 54.9874 67.329L54.8974 68.639V69.309V70.109C54.8974 71.209 54.8974 72.289 55.0374 73.419L54.2174 73.579C54.1484 73.5773 54.0823 73.6067 54.0374 73.659L53.9274 73.759L53.7074 73.949L53.5974 74.039C53.5974 74.039 53.5274 74.039 53.4474 74.039L53.2474 73.979C52.9674 73.899 52.7674 73.799 52.5274 73.719C51.5965 73.3734 50.7075 72.9239 49.8774 72.379C49.4311 72.0541 49.0068 71.7 48.6074 71.319C48.1874 70.949 47.7974 70.509 47.4174 70.139C46.6774 69.329 45.9974 68.559 45.4174 67.819L45.0174 67.309L44.7774 66.989L44.3474 66.369C44.0774 65.979 43.8574 65.609 43.6674 65.269C43.3452 64.7039 43.1092 64.0938 42.9674 63.459C42.8721 62.94 42.8721 62.408 42.9674 61.889C43.0055 61.4366 43.0824 60.9883 43.1974 60.549C43.4274 59.939 44.1974 60.049 45.2674 60.709C45.9217 61.1134 46.5288 61.5897 47.0774 62.129C47.4174 62.439 47.7574 62.789 48.0774 63.129L48.6274 63.719L48.9174 64.029L49.0174 64.119V64.119C49.3349 64.4106 49.6917 64.6563 50.0774 64.849C50.1974 64.849 50.3274 64.949 50.4274 64.849C50.5274 64.749 50.3474 64.389 50.3274 64.189C50.3074 63.989 50.3274 63.929 50.3274 63.829V63.679C50.3274 63.589 50.3274 63.679 50.3274 63.439C50.8728 61.8151 51.6328 60.2715 52.5874 58.849C54.3837 56.2353 56.5728 53.9146 59.0774 51.969C61.4674 50.029 63.9374 48.419 66.2674 46.839C68.5974 45.259 70.8374 43.789 72.7274 42.169C74.5084 40.7428 75.9987 38.9876 77.1174 36.999C77.6339 36.0473 78.0431 35.0411 78.3374 33.999C78.6238 32.9421 78.7783 31.8539 78.7974 30.759C78.845 28.4289 78.4619 26.11 77.6674 23.919C77.2729 22.7928 76.7565 21.713 76.1274 20.699C75.8074 20.179 75.5274 19.639 75.1974 19.129L74.0874 17.669L74.2274 17.569Z" fill="#231F20"/>
<path d="M48.7773 31.1892C48.9133 32.0004 48.8126 32.8337 48.4873 33.5892C48.3636 33.9197 48.2026 34.2351 48.0073 34.5292C47.8973 34.6792 47.8273 34.8192 47.6973 34.9692C47.5673 35.1192 47.4073 35.2892 47.2573 35.4292C47.0329 35.6621 46.7811 35.8669 46.5073 36.0392C46.2347 36.2429 45.9146 36.3737 45.5773 36.4192C44.6324 36.5822 43.6617 36.3548 42.8873 35.7892C42.316 35.3816 41.8274 34.8692 41.4473 34.2792C41.0798 33.7901 40.7836 33.2514 40.5673 32.6792C40.4989 32.4725 40.4421 32.2622 40.3973 32.0492C40.3973 31.8192 40.3973 31.5792 40.3973 31.3392C40.4275 31.1193 40.4743 30.902 40.5373 30.6892C40.6514 30.4864 40.817 30.3173 41.0173 30.1992C41.2673 30.0192 41.8273 30.5092 42.4273 30.9792C42.8106 31.3102 43.2559 31.5618 43.7373 31.7192C43.8373 31.5892 43.9873 31.5292 44.0173 31.7192C44.0473 31.9092 44.1673 32.1892 44.2673 32.4992C44.2978 32.628 44.3985 32.7287 44.5273 32.7592V32.7592C44.5177 32.8389 44.5177 32.9195 44.5273 32.9992C44.5189 33.032 44.5189 33.0664 44.5273 33.0992C44.523 33.1189 44.523 33.1394 44.5273 33.1592V33.1592L44.4773 33.0992C44.4773 33.0992 44.3773 32.8492 44.3873 32.8492C44.3973 32.8492 44.3873 32.8492 44.3873 32.8492C44.3825 32.8227 44.3825 32.7956 44.3873 32.7692L44.4673 32.6892L44.5173 32.5692C44.5173 32.4892 44.6173 32.3992 44.6073 32.3692C44.5973 32.3392 44.7073 32.2492 44.6773 32.1292C44.4664 31.8548 44.1142 31.7296 43.7773 31.8092C43.7118 31.8442 43.6513 31.888 43.5973 31.9392C43.5694 31.9904 43.546 32.0439 43.5273 32.0992V32.0992C43.5142 32.061 43.4974 32.0242 43.4773 31.9892C43.4226 31.897 43.3552 31.8129 43.2773 31.7392C43.253 31.684 43.2152 31.6359 43.1673 31.5992C43.1673 31.5992 43.0073 31.5092 43.0473 31.5192C43.0873 31.5292 43.0473 31.5192 43.0473 31.5192H43.1273C43.212 31.5454 43.3027 31.5454 43.3873 31.5192C43.5243 31.5026 43.6587 31.469 43.7873 31.4192H43.7173L43.4873 31.5292C43.3173 31.6192 43.1173 31.7292 42.8773 31.8792C42.6373 32.0292 42.4373 32.1592 42.2273 32.2992C41.5273 32.7992 40.7373 32.9492 40.1573 32.2992C39.9626 31.9311 39.834 31.5317 39.7773 31.1192C39.7799 30.6184 39.8783 30.1228 40.0673 29.6592C40.2718 29.2536 40.5383 28.8824 40.8573 28.5592C41.1191 28.2972 41.4152 28.0718 41.7373 27.8892C42.7544 27.3208 43.9548 27.1771 45.0773 27.4892C45.909 27.6663 46.6848 28.0439 47.3373 28.5892C48.1221 29.2524 48.6668 30.1556 48.8873 31.1592L48.7773 31.1892Z" fill="#231F20"/>
<path d="M31.0776 33.3789C31.371 34.3667 31.3181 35.4252 30.9276 36.3789C30.5394 37.2788 29.9265 38.0639 29.1476 38.6589C28.6515 39.1101 28.0652 39.451 27.4276 39.6589C27.1528 39.725 26.87 39.7519 26.5876 39.7389C26.2917 39.7433 25.9972 39.6959 25.7176 39.5989C25.0985 39.4344 24.544 39.0857 24.1276 38.5989C23.488 37.8776 23.056 36.9963 22.8776 36.0489C22.7351 35.3111 22.7015 34.5564 22.7776 33.8089C22.7928 32.7826 23.3476 31.8402 24.2376 31.3289C24.5276 31.1889 24.8176 31.6389 25.1276 32.1789C25.2876 32.4389 25.4576 32.7189 25.6176 32.9389C25.7463 33.1003 25.8632 33.2708 25.9676 33.4489C26.0883 33.8015 26.2529 34.1374 26.4576 34.4489C26.4576 34.5289 26.5576 34.5989 26.5476 34.6889C26.5422 34.7755 26.5422 34.8623 26.5476 34.9489C26.5426 35.0355 26.5426 35.1223 26.5476 35.2089V35.4589C26.5355 35.5216 26.5355 35.5861 26.5476 35.6489V35.6489C26.5178 35.6832 26.4972 35.7245 26.4876 35.7689C26.4665 35.8173 26.4497 35.8675 26.4376 35.9189V35.9189C26.5876 35.4289 26.4376 35.7889 26.5076 35.6789V35.6789C26.5076 35.6789 26.5876 35.6789 26.6676 35.6789L26.8776 35.6089C27.2619 35.4805 27.5481 35.1562 27.6276 34.7589C27.6428 34.4492 27.5135 34.15 27.2776 33.9489C26.9007 33.5645 26.3559 33.3954 25.8276 33.4989C25.6383 33.5602 25.4992 33.7224 25.4676 33.9189V34.0189V34.0189H25.3976V34.0189L25.5376 34.0789C25.6276 34.0789 25.6376 34.0789 25.6676 34.1789C25.6976 34.2789 25.7676 34.2789 25.7676 34.3289C25.7868 34.3908 25.7868 34.457 25.7676 34.5189C25.6943 34.5992 25.614 34.6728 25.5276 34.7389C25.2324 34.9403 24.9174 35.1112 24.5876 35.2489L23.9976 35.5289C23.363 35.8425 22.6011 35.7354 22.0776 35.2589C21.7113 34.7593 21.4929 34.1667 21.4476 33.5489C21.4143 33.1412 21.4724 32.7313 21.6176 32.3489C21.7429 31.9721 21.9214 31.6152 22.1476 31.2889C22.9984 30.1755 24.3374 29.5451 25.7376 29.5989C26.9024 29.622 28.038 29.9682 29.0176 30.5989C29.9909 31.2287 30.7318 32.1592 31.1276 33.2489L31.0776 33.3789Z" fill="#231F20"/>
<path d="M24.4074 36.0491C24.4836 35.7992 24.547 35.5455 24.5974 35.2891C24.5974 35.1991 24.5274 35.1591 24.5974 35.0691C24.7053 34.7409 24.7954 34.4071 24.8674 34.0691C24.871 33.9451 24.8105 33.828 24.7074 33.7591C24.5774 33.6591 24.3074 33.6491 24.5774 33.3391C24.8474 33.0291 27.6774 31.6391 27.8574 31.8491C28.1678 32.2003 28.1928 32.7199 27.9174 33.0991C27.7374 33.4191 27.9874 33.5591 28.0174 33.7891C28.0324 34.0389 28.0324 34.2894 28.0174 34.5391C28.0071 34.689 28.0071 34.8393 28.0174 34.9891C28.0174 35.2091 28.0174 35.4491 28.1174 35.6191C28.2174 35.7891 28.5074 35.8091 28.7174 35.8891C28.7674 35.8891 28.8474 35.8891 28.8774 35.8891C28.9074 35.8891 28.8774 35.9891 28.6774 36.1091L28.3074 36.2891L27.7074 36.5591L27.1874 36.7891C26.6544 37.0331 26.0935 37.2111 25.5174 37.3191C24.7374 37.3191 24.5174 37.0391 24.3574 36.7591C24.2907 36.5321 24.2736 36.2934 24.3074 36.0591L24.4074 36.0491Z" fill="#231F20"/>
<path d="M64.8674 29.8489C64.6525 30.5843 64.2845 31.2659 63.7874 31.8489C63.5031 32.1854 63.1653 32.4726 62.7874 32.6989C62.5874 32.8189 62.3974 32.9289 62.1974 33.0289C61.9956 33.1073 61.7884 33.1708 61.5774 33.2189C61.0272 33.4022 60.4437 33.4636 59.8674 33.3989C59.5843 33.3386 59.3067 33.255 59.0374 33.1489C58.8015 33.0319 58.5743 32.8983 58.3574 32.7489C58.008 32.4636 57.7045 32.1263 57.4574 31.7489C57.0663 31.1379 56.7917 30.4598 56.6474 29.7489C56.4544 29.1386 56.3997 28.493 56.4874 27.8589C56.5023 27.6425 56.5023 27.4253 56.4874 27.2089C56.5443 27.0049 56.6356 26.8122 56.7574 26.6389C57.0474 26.3189 57.2674 25.9689 57.8274 25.9989C58.0809 26.0534 58.3073 26.1949 58.4674 26.3989L58.8674 26.8289L59.2174 27.2289C59.5483 27.6182 59.936 27.9553 60.3674 28.2289V28.2289V28.2289V28.2289V28.2289V28.2289C60.272 28.4522 60.1951 28.683 60.1374 28.9189C60.0674 29.1389 60.1374 29.1789 60.1374 29.2289C60.0582 29.3563 59.9976 29.4944 59.9574 29.6389C59.9574 29.6389 59.9574 29.6889 59.9574 29.7189V29.7189V29.7189C59.9574 29.4689 59.8974 30.2989 59.9574 29.1489V29.1489V29.1489V29.1489C59.9598 29.1889 59.9598 29.2289 59.9574 29.2689C59.9497 29.3018 59.9497 29.336 59.9574 29.3689C60.0174 29.5189 59.9574 29.3689 59.9574 29.3689V29.3689V29.3689V29.3689C59.9574 29.3689 60.0274 29.2989 60.0974 29.2589C60.2409 29.0599 60.3242 28.8239 60.3374 28.5789C60.3374 28.1789 60.3374 27.6889 60.0774 27.5789C59.8174 27.4689 59.8274 27.8589 59.8074 28.0889C59.8074 28.0889 59.8074 28.2289 59.8074 28.1889C59.8074 28.1489 59.6274 28.1189 59.4674 27.8989C59.3074 27.6789 59.1074 27.3889 58.8174 26.9589L58.4274 26.3889C57.9763 25.8237 57.8654 25.059 58.1374 24.3889C58.2492 24.1629 58.4018 23.9595 58.5874 23.7889C58.806 23.6254 59.049 23.4971 59.3074 23.4089C59.4374 23.4089 59.5574 23.3089 59.6974 23.2789C59.8606 23.2686 60.0242 23.2686 60.1874 23.2789C60.5195 23.2384 60.8553 23.2384 61.1874 23.2789C62.4719 23.5779 63.5652 24.4161 64.1874 25.5789C64.984 26.8501 65.2665 28.3769 64.9774 29.8489H64.8674Z" fill="#231F20"/>
</svg>
